<?xml version="1.0" encoding="utf-8"?>
<!-- Generator: Adobe Illustrator 16.0.0, SVG Export Plug-In . SVG Version: 6.00 Build 0)  -->
<!DOCTYPE svg PUBLIC "-//W3C//DTD SVG 1.1//EN" "http://www.w3.org/Graphics/SVG/1.1/DTD/svg11.dtd">
<svg version="1.1" id="Layer_1" xmlns="http://www.w3.org/2000/svg" xmlns:xlink="http://www.w3.org/1999/xlink" x="0px" y="0px"
	 width="49.261px" height="48.044px" viewBox="-1159.29 1662.916 49.261 48.044"
	 enable-background="new -1159.29 1662.916 49.261 48.044" xml:space="preserve">
<g>
	<path fill="#63A4FF" d="M-1134.659,1662.916c-13.602,0-24.631,11.027-24.631,24.63c0,10.882,7.058,20.114,16.844,23.372
		c1.231,0.228,1.683-0.535,1.683-1.186c0-0.587-0.022-2.527-0.033-4.586c-6.852,1.49-8.298-2.905-8.298-2.905
		c-1.12-2.847-2.734-3.604-2.734-3.604c-2.235-1.528,0.168-1.497,0.168-1.497c2.474,0.174,3.775,2.538,3.775,2.538
		c2.197,3.766,5.763,2.677,7.168,2.048c0.221-1.592,0.859-2.679,1.563-3.294c-5.471-0.622-11.222-2.734-11.222-12.172
		c0-2.689,0.962-4.887,2.538-6.611c-0.256-0.62-1.099-3.125,0.238-6.518c0,0,2.068-0.662,6.775,2.524
		c1.965-0.546,4.071-0.819,6.165-0.829c2.093,0.01,4.201,0.283,6.17,0.829c4.701-3.187,6.767-2.524,6.767-2.524
		c1.34,3.393,0.497,5.897,0.241,6.518c1.579,1.725,2.535,3.922,2.535,6.611c0,9.46-5.762,11.543-11.247,12.152
		c0.884,0.765,1.671,2.264,1.671,4.562c0,3.295-0.028,5.947-0.028,6.759c0,0.656,0.443,1.424,1.691,1.182
		c9.781-3.26,16.83-12.489,16.83-23.368C-1110.03,1673.943-1121.058,1662.916-1134.659,1662.916z"/>
</g>
</svg>
