<?xml version="1.0" encoding="utf-8"?>
<!-- Generator: Adobe Illustrator 16.0.0, SVG Export Plug-In . SVG Version: 6.00 Build 0)  -->
<!DOCTYPE svg PUBLIC "-//W3C//DTD SVG 1.1//EN" "http://www.w3.org/Graphics/SVG/1.1/DTD/svg11.dtd">
<svg version="1.1" id="Layer_1" xmlns="http://www.w3.org/2000/svg" xmlns:xlink="http://www.w3.org/1999/xlink" x="0px" y="0px"
	 width="49.25px" height="49.248px" viewBox="3.722 3.923 49.25 49.248" enable-background="new 3.722 3.923 49.25 49.248"
	 xml:space="preserve">
<polygon fill="#63A4FF" points="28.944,31.839 39.203,38.972 39.203,24.773 34.665,27.898 "/>
<path fill="#63A4FF" d="M28.347,3.923c-13.6,0-24.625,11.023-24.625,24.623s11.025,24.625,24.625,24.625
	c13.599,0,24.625-11.025,24.625-24.625S41.946,3.923,28.347,3.923z M39.914,39.71L39.914,39.71H16.777h-0.87
	c-1.345,0-2.445-1.1-2.445-2.445V20.562c0-1.345,1.1-2.445,2.445-2.445l0.009,0.007l-0.009-0.008h24.951
	c1.346,0,2.445,1.1,2.445,2.445v0.708l0.001,0l-0.001,0.001l0.004,15.996C43.249,39.045,42.479,39.68,39.914,39.71z"/>
<path fill="#63A4FF" d="M28.444,32.064c-0.119,0-0.24-0.036-0.344-0.108l-0.18-0.126l-10.254,7.13H39.23l-10.257-7.132
	C28.974,31.828,28.564,32.064,28.444,32.064z"/>
<polygon points="40.858,18.118 40.858,18.117 40.856,18.119 "/>
<polygon fill="#63A4FF" points="39.037,18.715 17.719,18.715 28.343,26.592 "/>
<polygon fill="#63A4FF" points="27.941,31.832 17.694,24.773 17.688,38.976 27.952,31.839 "/>
</svg>
