<?xml version="1.0" encoding="utf-8"?>
<!-- Generator: Adobe Illustrator 16.0.0, SVG Export Plug-In . SVG Version: 6.00 Build 0)  -->
<!DOCTYPE svg PUBLIC "-//W3C//DTD SVG 1.1//EN" "http://www.w3.org/Graphics/SVG/1.1/DTD/svg11.dtd">
<svg version="1.1" id="Layer_1" xmlns="http://www.w3.org/2000/svg" xmlns:xlink="http://www.w3.org/1999/xlink" x="0px" y="0px"
	 width="49.249px" height="49.248px" viewBox="4 4.165 49.249 49.248" enable-background="new 4 4.165 49.249 49.248"
	 xml:space="preserve">
<path fill="#63A4FF" d="M28.625,4.165C15.026,4.165,4,15.188,4,28.788s11.025,24.625,24.625,24.625
	c13.598,0,24.624-11.025,24.624-24.625S42.224,4.165,28.625,4.165z M23.071,40.532c0,0.018-0.001,0.032-0.002,0.045
	c-0.012-0.004-0.025-0.011-0.041-0.019l-8.521-4.261c-0.12-0.06-0.25-0.271-0.25-0.405l0-19.536l8.815,4.408V40.532z M24.146,31.228
	v-8.895l7.907,12.848L24.146,31.228z M27.672,26.009l6.06-9.804l8.894,4.446l-9.126,14.829L27.672,26.009z M42.852,40.525
	c0,0.017-0.001,0.032-0.003,0.045c-0.012-0.005-0.025-0.011-0.04-0.019l-8.54-4.27l8.583-13.948V40.525z"/>
</svg>
